name ./resultDataOpenSim/trcMotMarkerGrf/sub10/grf-13-01.mot
datacolumns 19
datarows 30
range 1.33200000 1.44800000
endheader

                time	     ground_force_vx	     ground_force_vy	     ground_force_vz	     ground_force_px	     ground_force_py	     ground_force_pz	   l_ground_force_vx	   l_ground_force_vy	   l_ground_force_vz	   l_ground_force_px	   l_ground_force_py	   l_ground_force_pz	     ground_torque_x	     ground_torque_y	     ground_torque_z	   l_ground_torque_x	   l_ground_torque_y	   l_ground_torque_z	
          1.33200000	        -26.91145294	        441.65934402	        -33.22684181	          0.86092096	          0.00000000	          0.09994569	          0.00000000	          0.00000000	          0.00000000	          0.00000000	          0.00000000	          0.00000000	          0.00000000	          0.80702711	          0.00000000	          0.00000000	          0.00000000	          0.00000000	
          1.33600000	        -29.32012557	        435.82953968	        -33.26194205	          0.86333113	          0.00000000	          0.10015939	          0.00000000	          0.00000000	          0.00000000	          0.00000000	          0.00000000	          0.00000000	          0.00000000	          1.07568287	          0.00000000	          0.00000000	          0.00000000	          0.00000000	
          1.34000000	        -30.99598362	        430.78226690	        -33.19974163	          0.86554183	          0.00000000	          0.10037352	          0.00000000	          0.00000000	          0.00000000	          0.00000000	          0.00000000	          0.00000000	          0.00000000	          1.32136925	          0.00000000	          0.00000000	          0.00000000	          0.00000000	
          1.34400000	        -30.90490961	        426.40307877	        -32.91861837	          0.86737968	          0.00000000	          0.10060872	          0.00000000	          0.00000000	          0.00000000	          0.00000000	          0.00000000	          0.00000000	          0.00000000	          1.50594758	          0.00000000	          0.00000000	          0.00000000	          0.00000000	
          1.34800000	        -28.53853834	        422.61104944	        -32.37922089	          0.86876238	          0.00000000	          0.10087560	          0.00000000	          0.00000000	          0.00000000	          0.00000000	          0.00000000	          0.00000000	          0.00000000	          1.60647853	          0.00000000	          0.00000000	          0.00000000	          0.00000000	
          1.35200000	        -24.01790051	        419.37706073	        -31.63548244	          0.86971130	          0.00000000	          0.10117270	          0.00000000	          0.00000000	          0.00000000	          0.00000000	          0.00000000	          0.00000000	          0.00000000	          1.62110042	          0.00000000	          0.00000000	          0.00000000	          0.00000000	
          1.35600000	        -18.04035778	        416.71252181	        -30.80063707	          0.87031131	          0.00000000	          0.10149040	          0.00000000	          0.00000000	          0.00000000	          0.00000000	          0.00000000	          0.00000000	          0.00000000	          1.57115390	          0.00000000	          0.00000000	          0.00000000	          0.00000000	
          1.36000000	        -11.68584262	        414.65270105	        -29.99917129	          0.87071643	          0.00000000	          0.10181637	          0.00000000	          0.00000000	          0.00000000	          0.00000000	          0.00000000	          0.00000000	          0.00000000	          1.49690385	          0.00000000	          0.00000000	          0.00000000	          0.00000000	
          1.36400000	         -6.11829841	        413.26454621	        -29.33861213	          0.87112570	          0.00000000	          0.10213304	          0.00000000	          0.00000000	          0.00000000	          0.00000000	          0.00000000	          0.00000000	          0.00000000	          1.44613753	          0.00000000	          0.00000000	          0.00000000	          0.00000000	
          1.36800000	         -2.26286747	        412.64664862	        -28.90312945	          0.87170062	          0.00000000	          0.10241238	          0.00000000	          0.00000000	          0.00000000	          0.00000000	          0.00000000	          0.00000000	          0.00000000	          1.45863148	          0.00000000	          0.00000000	          0.00000000	          0.00000000	
          1.37200000	         -0.55128312	        412.88240721	        -28.75078442	          0.87253465	          0.00000000	          0.10261929	          0.00000000	          0.00000000	          0.00000000	          0.00000000	          0.00000000	          0.00000000	          0.00000000	          1.55250512	          0.00000000	          0.00000000	          0.00000000	          0.00000000	
          1.37600000	         -0.81622282	        413.97624546	        -28.89941518	          0.87362039	          0.00000000	          0.10273122	          0.00000000	          0.00000000	          0.00000000	          0.00000000	          0.00000000	          0.00000000	          0.00000000	          1.71839861	          0.00000000	          0.00000000	          0.00000000	          0.00000000	
          1.38000000	         -2.36254836	        415.83762535	        -29.30604961	          0.87483140	          0.00000000	          0.10275971	          0.00000000	          0.00000000	          0.00000000	          0.00000000	          0.00000000	          0.00000000	          0.00000000	          1.92388597	          0.00000000	          0.00000000	          0.00000000	          0.00000000	
          1.38400000	         -4.17904938	        418.32252695	        -29.86021061	          0.87600077	          0.00000000	          0.10273770	          0.00000000	          0.00000000	          0.00000000	          0.00000000	          0.00000000	          0.00000000	          0.00000000	          2.12567218	          0.00000000	          0.00000000	          0.00000000	          0.00000000	
          1.38800000	         -5.22262817	        421.27580661	        -30.40654072	          0.87695782	          0.00000000	          0.10269513	          0.00000000	          0.00000000	          0.00000000	          0.00000000	          0.00000000	          0.00000000	          0.00000000	          2.28388791	          0.00000000	          0.00000000	          0.00000000	          0.00000000	
          1.39200000	         -4.69129201	        424.53692219	        -30.79144166	          0.87755685	          0.00000000	          0.10265840	          0.00000000	          0.00000000	          0.00000000	          0.00000000	          0.00000000	          0.00000000	          0.00000000	          2.37295160	          0.00000000	          0.00000000	          0.00000000	          0.00000000	
          1.39600000	         -2.22072701	        427.93428521	        -30.91193642	          0.87774706	          0.00000000	          0.10264957	          0.00000000	          0.00000000	          0.00000000	          0.00000000	          0.00000000	          0.00000000	          0.00000000	          2.38640441	          0.00000000	          0.00000000	          0.00000000	          0.00000000	
          1.40000000	          2.03870727	        431.31714073	        -30.75132114	          0.87756330	          0.00000000	          0.10267881	          0.00000000	          0.00000000	          0.00000000	          0.00000000	          0.00000000	          0.00000000	          0.00000000	          2.33643713	          0.00000000	          0.00000000	          0.00000000	          0.00000000	
          1.40400000	          7.48367252	        434.61312756	        -30.38601555	          0.87712038	          0.00000000	          0.10272186	          0.00000000	          0.00000000	          0.00000000	          0.00000000	          0.00000000	          0.00000000	          0.00000000	          2.25027584	          0.00000000	          0.00000000	          0.00000000	          0.00000000	
          1.40800000	         13.23405160	        437.84635765	        -29.94772222	          0.87663032	          0.00000000	          0.10272853	          0.00000000	          0.00000000	          0.00000000	          0.00000000	          0.00000000	          0.00000000	          0.00000000	          2.16476856	          0.00000000	          0.00000000	          0.00000000	          0.00000000	
          1.41200000	         18.37966401	        441.10025578	        -29.55963067	          0.87625797	          0.00000000	          0.10265462	          0.00000000	          0.00000000	          0.00000000	          0.00000000	          0.00000000	          0.00000000	          0.00000000	          2.11912563	          0.00000000	          0.00000000	          0.00000000	          0.00000000	
          1.41600000	         22.23360758	        444.46176556	        -29.28915537	          0.87611360	          0.00000000	          0.10248537	          0.00000000	          0.00000000	          0.00000000	          0.00000000	          0.00000000	          0.00000000	          0.00000000	          2.14583565	          0.00000000	          0.00000000	          0.00000000	          0.00000000	
          1.42000000	         24.51362758	        447.99595763	        -29.14009493	          0.87625201	          0.00000000	          0.10223887	          0.00000000	          0.00000000	          0.00000000	          0.00000000	          0.00000000	          0.00000000	          0.00000000	          2.26149927	          0.00000000	          0.00000000	          0.00000000	          0.00000000	
          1.42400000	         25.39900310	        451.76739001	        -29.07177723	          0.87662033	          0.00000000	          0.10193239	          0.00000000	          0.00000000	          0.00000000	          0.00000000	          0.00000000	          0.00000000	          0.00000000	          2.46102378	          0.00000000	          0.00000000	          0.00000000	          0.00000000	
          1.42800000	         25.46103688	        455.86634383	        -29.01993223	          0.87712845	          0.00000000	          0.10158224	          0.00000000	          0.00000000	          0.00000000	          0.00000000	          0.00000000	          0.00000000	          0.00000000	          2.71839464	          0.00000000	          0.00000000	          0.00000000	          0.00000000	
          1.43200000	         25.50299285	        460.40531546	        -28.91071720	          0.87765106	          0.00000000	          0.10120357	          0.00000000	          0.00000000	          0.00000000	          0.00000000	          0.00000000	          0.00000000	          0.00000000	          2.99464100	          0.00000000	          0.00000000	          0.00000000	          0.00000000	
          1.43600000	         26.34487268	        465.48640735	        -28.67041902	          0.87804031	          0.00000000	          0.10081657	          0.00000000	          0.00000000	          0.00000000	          0.00000000	          0.00000000	          0.00000000	          0.00000000	          3.25014734	          0.00000000	          0.00000000	          0.00000000	          0.00000000	
          1.44000000	         28.59768539	        471.16828957	        -28.23731665	          0.87820030	          0.00000000	          0.10044605	          0.00000000	          0.00000000	          0.00000000	          0.00000000	          0.00000000	          0.00000000	          0.00000000	          3.45636285	          0.00000000	          0.00000000	          0.00000000	          0.00000000	
          1.44400000	         32.49414804	        477.46089474	        -27.58377218	          0.87810064	          0.00000000	          0.10010616	          0.00000000	          0.00000000	          0.00000000	          0.00000000	          0.00000000	          0.00000000	          0.00000000	          3.60251584	          0.00000000	          0.00000000	          0.00000000	          0.00000000	
          1.44800000	         37.83367790	        484.33938943	        -26.74176817	          0.87777835	          0.00000000	          0.09979935	          0.00000000	          0.00000000	          0.00000000	          0.00000000	          0.00000000	          0.00000000	          0.00000000	          3.69570765	          0.00000000	          0.00000000	          0.00000000	          0.00000000	
